<svg xmlns="http://www.w3.org/2000/svg" xmlns:xlink="http://www.w3.org/1999/xlink" id="Calque_1" version="1.1" viewBox="0 -37 337.5 337.5"><defs><linearGradient id="Dégradé_sans_nom" x1="97.6" x2="96.2" y1="6103.4" y2="6101.9" data-name="Dégradé sans nom" gradientTransform="translate(0 -5957.3)" gradientUnits="userSpaceOnUse"><stop offset="0" stop-color="#47b9eb"/><stop offset="1" stop-color="#2a4899"/></linearGradient><linearGradient id="Dégradé_sans_nom_2" x1="111.6" x2="218.1" y1="3455.5" y2="3455.5" data-name="Dégradé sans nom 2" gradientTransform="translate(0 -3362)" gradientUnits="userSpaceOnUse"><stop offset="0" stop-color="#47b9eb"/><stop offset="1" stop-color="#2a4899"/></linearGradient><linearGradient id="Dégradé_sans_nom_3" x1="222.1" x2="131.1" y1="6017.1" y2="6017.1" data-name="Dégradé sans nom 3" gradientTransform="translate(0 -5957.3)" gradientUnits="userSpaceOnUse"><stop offset="0" stop-color="#47b9eb"/><stop offset="1" stop-color="#2a4899"/></linearGradient><linearGradient id="Dégradé_sans_nom_4" x1="171" x2="148" y1="3435.8" y2="3435.8" data-name="Dégradé sans nom 4" gradientTransform="translate(0 -3362)" gradientUnits="userSpaceOnUse"><stop offset="0" stop-color="#47b9eb"/><stop offset="1" stop-color="#2a4899"/></linearGradient><linearGradient id="Dégradé_sans_nom_5" x1="234.2" x2="173.9" y1="3489.7" y2="3489.7" data-name="Dégradé sans nom 5" gradientTransform="translate(0 -3362)" gradientUnits="userSpaceOnUse"><stop offset="0" stop-color="#47b9eb"/><stop offset="1" stop-color="#2a4899"/></linearGradient><linearGradient id="Dégradé_sans_nom_6" x1="95.9" x2="97.9" y1="6102.6" y2="6102.6" data-name="Dégradé sans nom 6" gradientTransform="translate(0 -5957.3)" gradientUnits="userSpaceOnUse"><stop offset="0" stop-color="#47b9eb"/><stop offset="1" stop-color="#2a4899"/></linearGradient><linearGradient id="Dégradé_sans_nom_7" x1="129.8" x2="182" y1="3511.8" y2="3511.8" data-name="Dégradé sans nom 7" gradientTransform="translate(0 -3362)" gradientUnits="userSpaceOnUse"><stop offset="0" stop-color="#47b9eb"/><stop offset="1" stop-color="#2a4899"/></linearGradient><linearGradient id="Dégradé_sans_nom_8" x1="70.3" x2="150.2" y1="3474" y2="3474" data-name="Dégradé sans nom 8" gradientTransform="translate(0 -3362)" gradientUnits="userSpaceOnUse"><stop offset="0" stop-color="#47b9eb"/><stop offset="1" stop-color="#2a4899"/></linearGradient><linearGradient id="Dégradé_sans_nom_9" x1="187.4" x2="216.6" y1="3474.6" y2="3474.6" data-name="Dégradé sans nom 9" gradientTransform="translate(0 -3362)" gradientUnits="userSpaceOnUse"><stop offset="0" stop-color="#47b9eb"/><stop offset="1" stop-color="#2a4899"/></linearGradient><linearGradient id="Dégradé_sans_nom_10" x1="95.9" x2="181.2" y1="3486.1" y2="3486.1" data-name="Dégradé sans nom 10" gradientTransform="translate(0 -3362)" gradientUnits="userSpaceOnUse"><stop offset="0" stop-color="#47b9eb"/><stop offset="1" stop-color="#2a4899"/></linearGradient><linearGradient id="Dégradé_sans_nom_11" x1="165.8" x2="165.8" y1="6158" y2="6127" data-name="Dégradé sans nom 11" gradientTransform="translate(0 -5957.3)" gradientUnits="userSpaceOnUse"><stop offset="0" stop-color="#47b9eb"/><stop offset="1" stop-color="#2a4899"/></linearGradient><linearGradient id="Dégradé_sans_nom_12" x1="165.8" x2="165.8" y1="6158" y2="6127" data-name="Dégradé sans nom 12" gradientTransform="translate(0 -5957.3)" gradientUnits="userSpaceOnUse"><stop offset="0" stop-color="#47b9eb"/><stop offset="1" stop-color="#2a4899"/></linearGradient><linearGradient id="Dégradé_sans_nom_13" x1="165.8" x2="165.8" y1="6158" y2="6127" data-name="Dégradé sans nom 13" gradientTransform="translate(0 -5957.3)" gradientUnits="userSpaceOnUse"><stop offset="0" stop-color="#47b9eb"/><stop offset="1" stop-color="#2a4899"/></linearGradient><linearGradient id="Dégradé_sans_nom_14" x1="219.4" x2="228.6" y1="6004" y2="6004" data-name="Dégradé sans nom 14" gradientTransform="translate(0 -5957.3)" gradientUnits="userSpaceOnUse"><stop offset="0" stop-color="#e6332a"/><stop offset="1" stop-color="#9f0d22"/></linearGradient><linearGradient id="Dégradé_sans_nom_15" x1="228.6" x2="237.8" y1="6095.4" y2="6095.4" data-name="Dégradé sans nom 15" gradientTransform="translate(0 -5957.3)" gradientUnits="userSpaceOnUse"><stop offset="0" stop-color="#e6332a"/><stop offset="1" stop-color="#9f0d22"/></linearGradient><linearGradient id="Dégradé_sans_nom_16" x1="196.4" x2="205.6" y1="6020.2" y2="6020.2" data-name="Dégradé sans nom 16" gradientTransform="translate(0 -5957.3)" gradientUnits="userSpaceOnUse"><stop offset="0" stop-color="#47b9eb"/><stop offset="1" stop-color="#2a4899"/></linearGradient><linearGradient id="Dégradé_sans_nom_17" x1="174.5" x2="183.6" y1="6038.8" y2="6038.8" data-name="Dégradé sans nom 17" gradientTransform="translate(0 -5957.3)" gradientUnits="userSpaceOnUse"><stop offset="0" stop-color="#47b9eb"/><stop offset="1" stop-color="#2a4899"/></linearGradient><linearGradient id="Dégradé_sans_nom_18" x1="172" x2="181.2" y1="6093.6" y2="6093.6" data-name="Dégradé sans nom 18" gradientTransform="translate(0 -5957.3)" gradientUnits="userSpaceOnUse"><stop offset="0" stop-color="#e6332a"/><stop offset="1" stop-color="#9f0d22"/></linearGradient><linearGradient id="Dégradé_sans_nom_19" x1="144.9" x2="154.1" y1="6024.8" y2="6024.8" data-name="Dégradé sans nom 19" gradientTransform="translate(0 -5957.3)" gradientUnits="userSpaceOnUse"><stop offset="0" stop-color="#47b9eb"/><stop offset="1" stop-color="#2a4899"/></linearGradient><linearGradient id="Dégradé_sans_nom_20" x1="148" x2="157.2" y1="5991.9" y2="5991.9" data-name="Dégradé sans nom 20" gradientTransform="translate(0 -5957.3)" gradientUnits="userSpaceOnUse"><stop offset="0" stop-color="#47b9eb"/><stop offset="1" stop-color="#2a4899"/></linearGradient><linearGradient id="Dégradé_sans_nom_21" x1="178" x2="130.5" y1="3470" y2="3422.5" data-name="Dégradé sans nom 21" gradientTransform="translate(0 -3362)" gradientUnits="userSpaceOnUse"><stop offset="0" stop-color="#47b9eb"/><stop offset="1" stop-color="#2a4899"/></linearGradient><linearGradient id="Dégradé_sans_nom_22" x1="240.3" x2="218.9" y1="3457.1" y2="3435.7" data-name="Dégradé sans nom 22" gradientTransform="translate(0 -3362)" gradientUnits="userSpaceOnUse"><stop offset="0" stop-color="#47b9eb"/><stop offset="1" stop-color="#2a4899"/></linearGradient><linearGradient id="Dégradé_sans_nom_23" x1="155.2" x2="168.8" y1="6060.3" y2="6060.3" data-name="Dégradé sans nom 23" gradientTransform="translate(0 -5957.3)" gradientUnits="userSpaceOnUse"><stop offset="0" stop-color="#47b9eb"/><stop offset="1" stop-color="#2a4899"/></linearGradient><linearGradient id="Dégradé_sans_nom_24" x1="209.7" x2="223.3" y1="6077.1" y2="6077.1" data-name="Dégradé sans nom 24" gradientTransform="translate(0 -5957.3)" gradientUnits="userSpaceOnUse"><stop offset="0" stop-color="#e6332a"/><stop offset="1" stop-color="#9f0d22"/></linearGradient><linearGradient id="Dégradé_sans_nom_25" x1="142.7" x2="156.3" y1="6108.9" y2="6108.9" data-name="Dégradé sans nom 25" gradientTransform="translate(0 -5957.3)" gradientUnits="userSpaceOnUse"><stop offset="0" stop-color="#e6332a"/><stop offset="1" stop-color="#9f0d22"/></linearGradient><linearGradient id="Dégradé_sans_nom_26" x1="121.1" x2="134.8" y1="6070.3" y2="6070.3" data-name="Dégradé sans nom 26" gradientTransform="translate(0 -5957.3)" gradientUnits="userSpaceOnUse"><stop offset="0" stop-color="#47b9eb"/><stop offset="1" stop-color="#2a4899"/></linearGradient><linearGradient id="Dégradé_sans_nom_27" x1="126.6" x2="140.2" y1="6017.2" y2="6017.2" data-name="Dégradé sans nom 27" gradientTransform="translate(0 -5957.3)" gradientUnits="userSpaceOnUse"><stop offset="0" stop-color="#47b9eb"/><stop offset="1" stop-color="#2a4899"/></linearGradient><linearGradient xlink:href="#Dégradé_sans_nom_25" id="Dégradé_sans_nom_251" x1="88" x2="101.6" y1="150" y2="150" data-name="Dégradé sans nom 25"/><linearGradient id="Dégradé_sans_nom_29" x1="214.1" x2="221.1" y1="6047.4" y2="6047.4" data-name="Dégradé sans nom 29" gradientTransform="translate(0 -5957.3)" gradientUnits="userSpaceOnUse"><stop offset="0" stop-color="#e6332a"/><stop offset="1" stop-color="#9f0d22"/></linearGradient><linearGradient id="Dégradé_sans_nom_30" x1="66.8" x2="73.8" y1="6054.9" y2="6054.9" data-name="Dégradé sans nom 30" gradientTransform="translate(0 -5957.3)" gradientUnits="userSpaceOnUse"><stop offset="0" stop-color="#47b9eb"/><stop offset="1" stop-color="#2a4899"/></linearGradient><linearGradient id="Dégradé_sans_nom_31" x1="252.9" x2="262.1" y1="6033.3" y2="6033.3" data-name="Dégradé sans nom 31" gradientTransform="translate(0 -5957.3)" gradientUnits="userSpaceOnUse"><stop offset="0" stop-color="#e6332a"/><stop offset="1" stop-color="#9f0d22"/></linearGradient><linearGradient id="Dégradé_sans_nom_32" x1="121.2" x2="216.4" y1="6063.4" y2="6063.4" data-name="Dégradé sans nom 32" gradientTransform="translate(0 -5957.3)" gradientUnits="userSpaceOnUse"><stop offset="0" stop-color="#47b9eb"/><stop offset="1" stop-color="#2a4899"/></linearGradient><style>.st14{fill:#100c08}</style></defs><path d="M96.9 145.3h0" style="stroke:url(#Dégradé_sans_nom);fill:none;stroke-linecap:round;stroke-miterlimit:10;stroke-width:2px"/><path d="M126.4 137.9c-4.3-4.7-7.9-10.1-10.2-16.2h0c-2.1-5.2-3.4-10.8-3.7-16.7v-1.5c-.2-7.1 1-13.9 3.3-20.1h0c.2-.5.4-1 .6-1.4 0-.3.3-.7.4-1 .2-.4.4-.9.6-1.3 0-.3.3-.6.4-.9.2-.3.3-.6.5-1h0c.8-1.7 1.8-3.2 2.8-4.8h0c.2-.4.5-.8.7-1.1.5-.8 1.1-1.5 1.6-2.2h0c.3-.4.6-.7.8-1.1h0c.3-.3.6-.7.9-1 .5-.5.9-1 1.4-1.6.2-.2.5-.5.7-.8l.7-.7h0l.9-.9c.3-.3 0 0 0 0l3-2.7h0c2.1-1.7 4.4-3.3 6.7-4.6 3.3-1.9 6.8-3.5 10.4-4.6h0c5.1-1.7 10.5-2.6 16.2-2.6h1.8c11.4.4 22 4.4 30.5 10.9 1.2 1 2.5 2 3.6 3.1h0c1.1 1 2.1 2 3.1 3.1q2.55 2.85 4.8 6" style="fill:none;stroke-linecap:round;stroke-miterlimit:10;stroke-width:2px;stroke:url(#Dégradé_sans_nom_2)"/><path d="M132.1 60.6c5.4 2.8 11.2 5.1 17.3 6.6q8.1 2.1 16.8 2.4h2.7c11.5 0 22.5-2.5 32.4-6.9 7.2-3.2 13.8-7.5 19.7-12.6" style="fill:none;stroke-linecap:round;stroke-miterlimit:10;stroke-width:2px;stroke:url(#Dégradé_sans_nom_3)"/><path d="M152.4 35.3c-.4 1.2-.7 2.5-1 3.7-1 3.9-1.7 8-2.1 12.2h0c-.2 2.4-.3 4.2-.3 7.2v4.4c0 1.4.2 2.9.4 4.3h0c.2 1.6.4 3.2.7 4.8 1.1 6.2 2.8 12.2 5.3 17.9h0c1 2.4 2.1 4.7 3.4 7 1.2 2.1 2.4 4.2 3.8 6.1h0c1.2 1.8 2.4 3.5 3.7 5.1 1.2 1.5 2.4 2.9 3.7 4.3" style="fill:none;stroke-linecap:round;stroke-miterlimit:10;stroke-width:2px;stroke:url(#Dégradé_sans_nom_4)"/><path d="M174.9 117.3c9 8.3 20 14.5 32.1 17.9 6.1 1.7 12.4 2.7 19 2.9h7.2" style="fill:none;stroke-linecap:round;stroke-miterlimit:10;stroke-width:2px;stroke:url(#Dégradé_sans_nom_5)"/><path d="M96.9 145.3h0" style="fill:none;stroke-linecap:round;stroke-miterlimit:10;stroke-width:2px;stroke:url(#Dégradé_sans_nom_6)"/><path d="M154.5 131.3c10.9 10.5 19.8 23.2 26 37.1h-37c-2.5 0-4.6-1.8-5-4.3l-.2-1.6c-1-7-3.6-13.5-7.5-19.2" style="fill:none;stroke-linecap:round;stroke-miterlimit:10;stroke-width:2px;stroke:url(#Dégradé_sans_nom_7)"/><path d="M149.2 126.5q-7.05-6.15-15-11.1c-1.6-1-3.2-2-4.9-2.9h0c-2.2-1.3-4.5-2.4-6.9-3.5-3.2-1.5-6.6-2.9-9.9-4.2h0c-11.6-4.2-24.1-6.8-37.1-7.2h-4.1" style="fill:none;stroke-linecap:round;stroke-miterlimit:10;stroke-width:2px;stroke:url(#Dégradé_sans_nom_8)"/><path d="M215.6 119.4c-1.5-1.2-3.1-2.3-4.7-3.4-6.8-4.5-14.4-8-22.5-10.2" style="fill:none;stroke-linecap:round;stroke-miterlimit:10;stroke-width:2px;stroke:url(#Dégradé_sans_nom_9)"/><path d="M180.2 104.1c-3.4-.5-6.8-.9-10.4-1.1h-7.2c-2.5.2-4.9.4-7.4.8-7.4 1.1-14.5 3.2-21.2 6.3-1.6.7-3.2 1.5-4.7 2.4h0c-2.4 1.3-4.7 2.8-6.9 4.3-2.1 1.5-4.2 3-6.2 4.7h0c-7.5 6.2-13.7 13.8-18.5 22.2-.3.5-.5 1-.8 1.5" style="fill:none;stroke-linecap:round;stroke-miterlimit:10;stroke-width:2px;stroke:url(#Dégradé_sans_nom_10)"/><path d="M188.9 177.2h-46.2c-1.4 0-2.5-1.1-2.5-2.5s1.1-2.5 2.5-2.5h46.2c1.4 0 2.5 1.1 2.5 2.5s-1.1 2.5-2.5 2.5" style="fill:url(#Dégradé_sans_nom_11)"/><path d="M184.9 184.5h-38.2c-1.4 0-2.5-1.1-2.5-2.5s1.1-2.5 2.5-2.5h38.2c1.4 0 2.5 1.1 2.5 2.5s-1.1 2.5-2.5 2.5" style="fill:url(#Dégradé_sans_nom_12)"/><path d="M165.8 192.8c-9.7 0-14.2-2.1-15.6-3.5-1-1-1.9-2.5-.5-2.5h32.2c1.4 0 .5 1.5-.5 2.5s-5.9 3.5-15.6 3.5" style="fill:url(#Dégradé_sans_nom_13)"/><circle cx="224" cy="46.7" r="4.6" style="fill:url(#Dégradé_sans_nom_14)"/><circle cx="233.2" cy="138.1" r="4.6" style="fill:url(#Dégradé_sans_nom_15)"/><circle cx="201" cy="62.9" r="4.6" style="fill:url(#Dégradé_sans_nom_16)"/><circle cx="179.1" cy="81.5" r="4.6" style="fill:url(#Dégradé_sans_nom_17)"/><circle cx="176.6" cy="136.3" r="4.6" style="fill:url(#Dégradé_sans_nom_18)"/><circle cx="149.5" cy="67.5" r="4.6" style="fill:url(#Dégradé_sans_nom_19)"/><circle cx="152.6" cy="34.6" r="4.6" style="fill:url(#Dégradé_sans_nom_20)"/><path d="M149.4 51.3h0c-3.7 1.2-7.2 2.7-10.4 4.6-2.4 1.4-4.6 2.9-6.7 4.7h0l-3 2.7h0l-.9.9h0l-.7.7c-.2.2-.5.5-.7.8-.5.5-.9 1-1.4 1.6l-1.8 2.1h0c-.6.7-1.1 1.5-1.6 2.2-.2.3-.5.7-.7 1q0 0 0 0c-1 1.5-2 3.1-2.8 4.8 11.9 5.7 24.4 9.8 37.2 12.3h0q18 3.6 36.3 3" style="fill:none;stroke-linecap:round;stroke-miterlimit:10;stroke-width:2px;stroke:url(#Dégradé_sans_nom_21)"/><path d="M201.6 92.3c4.2-.4 8.4-.9 12.5-1.7 1.1-.2 2.2-.4 3.2-.6 1.2-.2 2.4-.5 3.6-.8 7.7-1.7 15.3-4 22.8-6.8 3.3-1.2 6.6-2.6 9.8-4.1 1.4-.6 2.7-1.3 4-1.9" style="fill:none;stroke-linecap:round;stroke-miterlimit:10;stroke-width:2px;stroke:url(#Dégradé_sans_nom_22)"/><circle cx="162" cy="103" r="6.8" style="fill:url(#Dégradé_sans_nom_23)"/><circle cx="216.5" cy="119.8" r="6.8" style="fill:url(#Dégradé_sans_nom_24)"/><circle cx="149.5" cy="151.6" r="6.8" style="fill:url(#Dégradé_sans_nom_25)"/><circle cx="127.9" cy="113" r="6.8" style="fill:url(#Dégradé_sans_nom_26)"/><circle cx="133.4" cy="59.9" r="6.8" style="fill:url(#Dégradé_sans_nom_27)"/><circle cx="94.8" cy="150" r="6.8" style="fill:url(#Dégradé_sans_nom_251)"/><circle cx="217.6" cy="90.1" r="3.5" style="fill:url(#Dégradé_sans_nom_29)"/><circle cx="70.3" cy="97.6" r="3.5" style="fill:url(#Dégradé_sans_nom_30)"/><circle cx="257.5" cy="76" r="4.6" style="fill:url(#Dégradé_sans_nom_31)"/><path d="M122.2 143.2c7.9-3.1 15.8-6.6 23.3-10.7 9.1-4.9 17.9-10.6 26.3-17.1 4.8-3.7 9.5-7.6 14-11.8.2-.2.5-.4.7-.7 1.7-1.6 3.3-3.1 4.9-4.7 3-3 5.9-6.1 8.6-9.2 5.6-6.4 10.7-13 15.4-19.9" style="fill:none;stroke-linecap:round;stroke-miterlimit:10;stroke-width:2px;stroke:url(#Dégradé_sans_nom_32)"/><path d="M42.5 202.7h5.1l10.2 30.5h-4.4l-2.2-6.9H38.5l-2.3 6.9h-4.4l10.6-30.5ZM39.7 223h10.4L45 207.1zM63.2 202.7h12.1c5.2 0 9.2 3.7 9.2 9.8s-3.6 8.9-8.2 9.4c2.6 3.1 5.5 7.9 8.7 7.9s2.1-.4 3-.9l.5 3.5c-1.1.6-2.9 1.2-4.5 1.2-6 0-10-9.5-13.1-11.7h-3.3v11.3h-4.4zm4.4 15.7h6.6c3.2 0 5.8-2.2 5.8-5.9s-2.6-6-5.8-6h-6.6v11.8ZM115.1 229c-2.3 2.4-6.3 4.6-10.6 4.6-7.7 0-13.3-5.8-13.3-15.7s5.6-15.7 13.3-15.7 10.5 3.5 10.6 10.6l-4 .8c0-5-2.5-7.3-6.8-7.3s-8.6 4.3-8.6 11.6 3.5 11.6 9.1 11.6 6.5-2.1 8.5-4.1zM121.3 202.7h6.6v30.5h-6.6zM142.2 213.9v19.3h-6.6v-30.5h5.7l12.9 19.4v-19.4h6.7v30.5h-5.8zM175.3 213.9v19.3h-6.6v-30.5h5.7l12.9 19.4v-19.4h6.7v30.5h-5.8zM213.4 202.3c8.2 0 13.4 6.5 13.4 15.7s-5.2 15.7-13.4 15.7-13.3-6.5-13.3-15.7 5.1-15.7 13.3-15.7m0 25.1c4.1 0 6.9-3 6.9-9.4s-2.8-9.5-6.9-9.5-6.8 3-6.8 9.5 2.7 9.4 6.8 9.4M233.4 233.2v-30.5h4.4v26.6h14v3.9zM264.2 202.7h5.1l10.2 30.5h-4.4l-2.2-6.9h-12.7l-2.3 6.9h-4.4l10.6-30.5Zm-2.8 20.3h10.4l-5.1-15.9zM284.9 202.7h10.3c5.5 0 8.8 2.5 8.8 8s-1.7 5.6-4.3 6.6c3.9.8 6.3 3.2 6.3 7.6s-3.2 8.3-9.2 8.3h-12.1v-30.5Zm4.4 12.9h5.2c3.3 0 5.2-1.6 5.2-4.5s-1.7-4.5-5-4.5h-5.3v9Zm0 13.8h7.1c3.5 0 5.2-1.7 5.2-4.7s-2-5-5.8-5h-6.5z" class="st14"/></svg>